<svg version="1.0" xmlns="http://www.w3.org/2000/svg" width="800.000000" height="800.000000" viewBox="0 0 800.000000 800.000000" preserveAspectRatio="xMidYMid meet">
  <metadata>
    <rdf:RDF xmlns:rdf="http://www.w3.org/1999/02/22-rdf-syntax-ns#" xmlns:rdfs="http://www.w3.org/2000/01/rdf-schema#" xmlns:dc="http://purl.org/dc/elements/1.1/">
      <rdf:Description dc:format="image/svg+xml" dc:Label="1" dc:ContentProducer="001191330110MACRLGPT8B00000" dc:ProduceID="359684542" dc:ReservedCode1="UTWCMzWvggeCoiE+iHhAbYgZ+HpqO4JEpJsd8V9FIFs=" dc:ContentPropagator="001191330110MACRLGPT8B00000" dc:PropagateID="359684542" dc:ReservedCode2="UTWCMzWvggeCoiE+iHhAbYgZ+HpqO4JEpJsd8V9FIFs="/>
    </rdf:RDF>
  </metadata>
  <g transform="translate(185.557212,631.391503) scale(0.055535,-0.055535)" fill="#000000" stroke="none">
    <path d="M2010 7159 c-666 -62 -1195 -369 -1535 -892 -231 -356 -315 -808 -225 -1222 65 -298 219 -578 425 -773 142 -135 322 -236 785 -442 218 -97 590 -255 820 -350 305 -126 386 -168 462 -245 69 -70 127 -165 148 -244 15 -57 13 -204 -3 -266 -39 -143 -147 -281 -281 -360 -70 -41 -175 -75 -280 -91 -123 -19 -415 -14 -576 11 -274 42 -555 132 -828 267 -195 96 -219 102 -277 64 -25 -16 -480 -620 -532 -705 -26 -44 -33 -65 -33 -108 0 -89 33 -143 110 -183 58 -29 454 -174 625 -229 299 -94 647 -171 945 -208 197 -24 600 -24 735 0 800 145 1421 699 1579 1407 66 298 55 576 -34 841 -83 250 -208 442 -407 629 -185 173 -404 293 -1006 551 -284 121 -394 165 -694 271 -142 50 -285 104 -317 120 -199 100 -303 333 -251 556 44 187 168 332 360 423 149 70 321 98 592 99 512 0 685 -73 912 -385 195 -267 703 -987 946 -1340 87 -126 220 -318 294 -425 74 -107 156 -225 181 -261 25 -36 92 -134 150 -218 58 -83 128 -185 157 -225 131 -187 1062 -1549 1135 -1661 80 -124 182 -198 304 -224 30 -6 279 -13 600 -16 541 -7 549 -6 581 14 71 45 87 138 37 216 -16 25 -114 166 -219 313 -257 362 -373 527 -560 792 -87 124 -323 457 -525 740 -740 1040 -670 936 -670 992 0 53 -35 2 556 822 572 795 1099 1536 1111 1563 28 69 7 146 -50 181 -31 20 -48 22 -188 21 -85 0 -338 -6 -564 -13 -367 -12 -417 -16 -475 -34 -79 -26 -172 -80 -222 -130 -20 -20 -202 -264 -404 -542 -202 -278 -407 -559 -456 -625 -49 -66 -94 -127 -99 -135 -12 -20 -8 -25 -186 226 -613 858 -665 926 -811 1047 -293 244 -622 355 -1152 387 -195 12 -555 11 -690 -1z"/>
  </g>
</svg>